<svg xmlns="http://www.w3.org/2000/svg"><symbol id="twitter" viewBox="0 0 26 26"><path d="M25.312 6.375a10.85 10.85 0 01-2.531 2.609c.016.219.016.438.016.656 0 6.672-5.078 14.359-14.359 14.359-2.859 0-5.516-.828-7.75-2.266.406.047.797.063 1.219.063 2.359 0 4.531-.797 6.266-2.156a5.056 5.056 0 01-4.719-3.5c.313.047.625.078.953.078.453 0 .906-.063 1.328-.172a5.048 5.048 0 01-4.047-4.953v-.063a5.093 5.093 0 002.281.641 5.044 5.044 0 01-2.25-4.203c0-.938.25-1.797.688-2.547a14.344 14.344 0 0010.406 5.281 5.708 5.708 0 01-.125-1.156 5.045 5.045 0 015.047-5.047 5.03 5.03 0 013.687 1.594 9.943 9.943 0 003.203-1.219 5.032 5.032 0 01-2.219 2.781c1.016-.109 2-.391 2.906-.781z"/></symbol><symbol id="facebook" viewBox="0 0 16 28"><path d="M14.984.187v4.125h-2.453c-1.922 0-2.281.922-2.281 2.25v2.953h4.578l-.609 4.625H10.25v11.859H5.469V14.14H1.485V9.515h3.984V6.109C5.469 2.156 7.891 0 11.422 0c1.687 0 3.141.125 3.563.187z"/></symbol><symbol id="instagram" viewBox="0 0 24 28"><path d="M16 14c0-2.203-1.797-4-4-4s-4 1.797-4 4 1.797 4 4 4 4-1.797 4-4zm2.156 0c0 3.406-2.75 6.156-6.156 6.156S5.844 17.406 5.844 14 8.594 7.844 12 7.844s6.156 2.75 6.156 6.156zm1.688-6.406c0 .797-.641 1.437-1.437 1.437S16.97 8.39 16.97 7.594s.641-1.437 1.437-1.437 1.437.641 1.437 1.437zM12 4.156c-1.75 0-5.5-.141-7.078.484-.547.219-.953.484-1.375.906s-.688.828-.906 1.375c-.625 1.578-.484 5.328-.484 7.078s-.141 5.5.484 7.078c.219.547.484.953.906 1.375s.828.688 1.375.906c1.578.625 5.328.484 7.078.484s5.5.141 7.078-.484c.547-.219.953-.484 1.375-.906s.688-.828.906-1.375c.625-1.578.484-5.328.484-7.078s.141-5.5-.484-7.078c-.219-.547-.484-.953-.906-1.375s-.828-.688-1.375-.906C17.5 4.015 13.75 4.156 12 4.156zM24 14c0 1.656.016 3.297-.078 4.953-.094 1.922-.531 3.625-1.937 5.031s-3.109 1.844-5.031 1.937c-1.656.094-3.297.078-4.953.078s-3.297.016-4.953-.078c-1.922-.094-3.625-.531-5.031-1.937S.173 20.875.08 18.953C-.014 17.297.002 15.656.002 14s-.016-3.297.078-4.953c.094-1.922.531-3.625 1.937-5.031s3.109-1.844 5.031-1.937c1.656-.094 3.297-.078 4.953-.078s3.297-.016 4.953.078c1.922.094 3.625.531 5.031 1.937s1.844 3.109 1.937 5.031C24.016 10.703 24 12.344 24 14z"/></symbol><symbol id="marker" viewBox="0 0 384 512"><path fill="currentColor" d="M172.268 501.67C26.97 291.031 0 269.413 0 192 0 85.961 85.961 0 192 0s192 85.961 192 192c0 77.413-26.97 99.031-172.268 309.67-9.535 13.774-29.93 13.773-39.464 0zM192 272c44.183 0 80-35.817 80-80s-35.817-80-80-80-80 35.817-80 80 35.817 80 80 80z"/></symbol><symbol id="clock" viewBox="0 0 24 28"><path d="M14 8.5v7c0 .281-.219.5-.5.5h-5a.494.494 0 01-.5-.5v-1c0-.281.219-.5.5-.5H12V8.5c0-.281.219-.5.5-.5h1c.281 0 .5.219.5.5zm6.5 5.5c0-4.688-3.813-8.5-8.5-8.5S3.5 9.313 3.5 14s3.813 8.5 8.5 8.5 8.5-3.813 8.5-8.5zm3.5 0c0 6.625-5.375 12-12 12S0 20.625 0 14 5.375 2 12 2s12 5.375 12 12z"/></symbol><symbol id="box" viewBox="0 0 24 28"><path d="M15.984 15h4.937c-.031-.078-.047-.172-.078-.25L17.53 7H6.468l-3.313 7.75c-.031.078-.047.172-.078.25h4.937l1.484 3h5zm8.016.469V23c0 .547-.453 1-1 1H1c-.547 0-1-.453-1-1v-7.531c0-.562.172-1.391.391-1.922L4.11 4.922C4.329 4.406 4.954 4 5.501 4h13c.547 0 1.172.406 1.391.922l3.719 8.625c.219.531.391 1.359.391 1.922z"/></symbol><symbol id="phone" viewBox="0 0 22 28"><path d="M22 19.375c0 .562-.25 1.656-.484 2.172-.328.766-1.203 1.266-1.906 1.656-.922.5-1.859.797-2.906.797-1.453 0-2.766-.594-4.094-1.078a14.627 14.627 0 01-2.734-1.297c-2.656-1.641-5.859-4.844-7.5-7.5a14.627 14.627 0 01-1.297-2.734C.595 10.063.001 8.75.001 7.297c0-1.047.297-1.984.797-2.906.391-.703.891-1.578 1.656-1.906.516-.234 1.609-.484 2.172-.484.109 0 .219 0 .328.047.328.109.672.875.828 1.188.5.891.984 1.797 1.5 2.672.25.406.719.906.719 1.391 0 .953-2.828 2.344-2.828 3.187 0 .422.391.969.609 1.344 1.578 2.844 3.547 4.813 6.391 6.391.375.219.922.609 1.344.609.844 0 2.234-2.828 3.187-2.828.484 0 .984.469 1.391.719.875.516 1.781 1 2.672 1.5.313.156 1.078.5 1.188.828.047.109.047.219.047.328z"/></symbol><symbol id="heart" viewBox="0 0 28 28"><path d="M14 26c-.25 0-.5-.094-.688-.281l-9.75-9.406c-.125-.109-3.563-3.25-3.563-7C-.001 4.735 2.796 2 7.468 2c2.734 0 5.297 2.156 6.531 3.375C15.233 4.156 17.796 2 20.53 2c4.672 0 7.469 2.734 7.469 7.313 0 3.75-3.437 6.891-3.578 7.031l-9.734 9.375a.972.972 0 01-.688.281z"/></symbol></svg>